<svg width="728" height="212" viewBox="0 0 728 212" fill="none" xmlns="http://www.w3.org/2000/svg">
<path d="M147.898 171.255H68.1462L55.3615 209H0.87464L78.1912 -4.68602H138.462L215.778 209H160.683L147.898 171.255ZM134.504 131.075L108.022 52.8448L81.844 131.075H134.504ZM290.448 -4.68602V123.16C290.448 135.945 293.593 145.787 299.884 152.687C306.175 159.586 315.408 163.036 327.584 163.036C339.76 163.036 349.095 159.586 355.589 152.687C362.083 145.787 365.329 135.945 365.329 123.16V-4.68602H417.381V122.856C417.381 141.931 413.323 158.064 405.205 171.255C397.088 184.445 386.13 194.389 372.331 201.086C358.734 207.782 343.514 211.131 326.671 211.131C309.828 211.131 294.71 207.884 281.316 201.39C268.126 194.693 257.675 184.75 249.963 171.559C242.252 158.166 238.396 141.931 238.396 122.856V-4.68602H290.448ZM533.989 -4.68602C556.514 -4.68602 576.198 -0.221545 593.041 8.7074C609.885 17.6364 622.872 30.2181 632.004 46.4525C641.339 62.484 646.006 81.0522 646.006 102.157C646.006 123.059 641.339 141.627 632.004 157.861C622.872 174.096 609.783 186.678 592.737 195.607C575.894 204.536 556.311 209 533.989 209H453.932V-4.68602H533.989ZM530.64 163.949C550.325 163.949 565.646 158.572 576.604 147.816C587.562 137.061 593.041 121.841 593.041 102.157C593.041 82.4727 587.562 67.1514 576.604 56.1932C565.646 45.2349 550.325 39.7558 530.64 39.7558H505.984V163.949H530.64ZM727.147 -4.68602V209H675.095V-4.68602H727.147Z" fill="#EAEBF0"/>
</svg>
